<?xml version="1.0" encoding="UTF-8"?>
<svg width="700pt" height="700pt" version="1.1" viewBox="0 0 700 700" xmlns="http://www.w3.org/2000/svg">
 <path d="m427.78 124.45c0-25.773 20.895-46.668 46.668-46.668 25.773 0 46.664 20.895 46.664 46.668 0 25.773-20.891 46.664-46.664 46.664-25.773 0-46.668-20.891-46.668-46.664zm-29.555 15.555h-297.11v-31.109h297.11c7.207-35.504 38.594-62.223 76.223-62.223 37.629 0 69.016 26.719 76.223 62.223h48.223v31.109h-48.223c-7.207 35.5-38.594 62.223-76.223 62.223-37.629 0-69.016-26.723-76.223-62.223zm-219.33 140c0-25.773 20.891-46.668 46.664-46.668 25.773 0 46.668 20.895 46.668 46.668s-20.895 46.668-46.668 46.668c-25.773 0-46.664-20.895-46.664-46.668zm-29.559 15.555h-48.223v-31.109h48.223c7.207-35.5 38.594-62.223 76.223-62.223 37.629 0 69.016 26.723 76.223 62.223h297.11v31.109h-297.11c-7.207 35.5-38.594 62.223-76.223 62.223-37.629 0-69.016-26.723-76.223-62.223zm325.11 93.336c-25.773 0-46.668 20.891-46.668 46.664 0 25.773 20.895 46.668 46.668 46.668 25.773 0 46.664-20.895 46.664-46.668 0-25.773-20.891-46.664-46.664-46.664zm-76.223 31.109c7.207-35.5 38.594-62.223 76.223-62.223 37.629 0 69.016 26.723 76.223 62.223h48.223v31.109h-48.223c-7.207 35.504-38.594 62.223-76.223 62.223-37.629 0-69.016-26.719-76.223-62.223h-297.11v-31.109z" fill-rule="evenodd"/>
</svg>
