<?xml version="1.0" standalone="no"?>
<!DOCTYPE svg PUBLIC "-//W3C//DTD SVG 20010904//EN"
 "http://www.w3.org/TR/2001/REC-SVG-20010904/DTD/svg10.dtd">
<svg version="1.0" xmlns="http://www.w3.org/2000/svg"
 width="512.000000pt" height="512.000000pt" viewBox="0 0 512.000000 512.000000"
 preserveAspectRatio="xMidYMid meet">

<g transform="translate(0.000000,512.000000) scale(0.100000,-0.100000)"
fill="#000000" stroke="none">
<path d="M2360 5110 c-661 -81 -1204 -510 -1445 -1140 -136 -355 -150 -769
-40 -1135 19 -60 50 -148 70 -195 57 -133 1345 -2486 1388 -2535 21 -24 63
-56 95 -72 47 -23 70 -28 132 -28 97 1 164 29 223 95 46 53 1328 2391 1391
2538 124 291 172 622 131 923 -105 789 -688 1406 -1450 1535 -109 18 -392 26
-495 14z m415 -904 c113 -36 198 -89 290 -181 91 -91 144 -175 182 -290 23
-71 26 -96 26 -215 0 -119 -3 -144 -26 -215 -38 -115 -91 -199 -182 -290 -91
-91 -175 -144 -290 -182 -71 -23 -96 -26 -215 -26 -119 0 -144 3 -215 26 -114
38 -198 90 -290 182 -91 91 -144 175 -182 290 -23 71 -26 96 -26 215 -1 118 3
145 25 212 39 119 92 204 182 294 110 110 236 177 381 204 88 16 250 4 340
-24z"/>
</g>
</svg>
